<?xml version="1.0" encoding="UTF-8"?>
<svg id="Full_Color" data-name="Full Color" xmlns="http://www.w3.org/2000/svg" viewBox="0 0 1000 1000">
  <defs>
    <style>
      .cls-1 {
        letter-spacing: -.01em;
      }

      .cls-2 {
        fill: #624ada;
      }

      .cls-3 {
        letter-spacing: -.02em;
      }

      .cls-4 {
        letter-spacing: -.13em;
      }

      .cls-5 {
        fill: #e59323;
        font-size: 28.64px;
      }

      .cls-5, .cls-6 {
        font-family: AristotelicaDisplayTrial-DmBd, 'Aristotelica Display Trial';
      }

      .cls-6 {
        font-size: 72.05px;
      }
    </style>
  </defs>
  <path class="cls-2" d="M316.33,428.17v-27.4c0-8.39,6.8-15.19,15.19-15.19h27.29c8.39,0,15.19,6.8,15.19,15.19v26.48c0,8.39,6.8,15.19,15.19,15.19h13.24c15.62,0,28.28,12.66,28.28,28.28h0c0,15.62-12.66,28.28-28.28,28.28h-12.36c-8.39,0-15.19,6.8-15.19,15.19v27.26c0,8.39,6.8,15.19,15.19,15.19h11.53c15.95,0,28.88,12.93,28.88,28.88h0c0,15.95-12.94,28.91-28.89,28.89-8-.01-16-.07-23.99-.24-2.67-.06-5.75-2.3-7.84-4.35-7.27-7.16-14.55-14.31-21.78-21.52-8.67-8.64-17.26-17.36-25.68-26.24-3.05-3.22-4.85-8.8-5.03-13.38-.42-10.91-.37-21.84-.3-33.23,.05-8.43-6.76-15.29-15.19-15.29h-24.8c-9.02,0-16.33-7.31-16.33-16.33v-23.79c0-9.02,7.31-16.33,16.33-16.33,7.78,0,15.57,0,23.37,0,9.02,0,16.35,7.3,16.35,16.32h0c0,13.51,16.32,20.29,25.9,10.77l1.53-1.52c9.86-9.79,2.49-26.58-11.39-25.96l-.55,.02c-8.65,.39-15.88-6.52-15.88-15.18Z"/>
  <g>
    <text class="cls-6" transform="translate(432.23 552.33)"><tspan class="cls-4" x="0" y="0">T</tspan><tspan x="29.47" y="0">echC</tspan><tspan class="cls-3" x="185.95" y="0">r</tspan><tspan x="210.88" y="0">aft</tspan></text>
    <text class="cls-5" transform="translate(626.56 578.84)"><tspan class="cls-1" x="0" y="0">A</tspan><tspan x="16.24" y="0">cademy</tspan></text>
  </g>
</svg>