<?xml version="1.0" encoding="UTF-8"?>
<svg id="Logo_Mark" data-name="Logo Mark" xmlns="http://www.w3.org/2000/svg" viewBox="0 0 1000 1000">
  <defs>
    <style>
      .cls-1 {
        fill: #624ada;
      }
    </style>
  </defs>
  <path class="cls-1" d="M429.33,327.13v-65.94c0-20.19,16.37-36.56,36.56-36.56h65.67c20.19,0,36.56,16.37,36.56,36.56v63.74c0,20.19,16.37,36.56,36.56,36.56h31.87c37.59,0,68.06,30.47,68.06,68.06h0c0,37.59-30.47,68.06-68.06,68.06h-29.75c-20.19,0-36.56,16.37-36.56,36.56v65.6c0,20.19,16.37,36.56,36.56,36.56h27.75c38.39,0,69.51,31.12,69.51,69.51h0c0,38.4-31.14,69.57-69.53,69.52-19.26-.02-38.5-.16-57.72-.58-6.42-.14-13.85-5.52-18.86-10.46-17.5-17.22-35.02-34.44-52.41-51.78-20.86-20.8-41.54-41.78-61.79-63.16-7.35-7.76-11.67-21.19-12.09-32.21-1.01-26.26-.89-52.56-.72-79.96,.13-20.28-16.28-36.81-36.56-36.81h-59.67c-21.71,0-39.3-17.6-39.3-39.3v-57.26c0-21.71,17.58-39.3,39.29-39.3,18.73,0,37.48,0,56.23-.02,21.71-.01,39.34,17.57,39.35,39.28h0c.02,32.5,39.27,48.82,62.32,25.91l3.68-3.66c23.72-23.56,5.98-63.97-27.42-62.46l-1.31,.06c-20.82,.94-38.21-15.69-38.21-36.52Z"/>
</svg>