<?xml version="1.0" encoding="UTF-8"?>
<svg id="Favicon" xmlns="http://www.w3.org/2000/svg" viewBox="0 0 32 32">
  <defs>
    <style>
      .cls-1 {
        fill: #624ada;
      }
    </style>
  </defs>
  <path class="cls-1" d="M12.87,8.34v-2.92c0-.9,.73-1.62,1.62-1.62h2.91c.9,0,1.62,.73,1.62,1.62v2.83c0,.9,.73,1.62,1.62,1.62h1.41c1.67,0,3.02,1.35,3.02,3.02h0c0,1.67-1.35,3.02-3.02,3.02h-1.32c-.9,0-1.62,.73-1.62,1.62v2.91c0,.9,.73,1.62,1.62,1.62h1.23c1.7,0,3.08,1.38,3.08,3.08h0c0,1.7-1.38,3.08-3.08,3.08-.85,0-1.71,0-2.56-.03-.28,0-.61-.24-.84-.46-.78-.76-1.55-1.53-2.32-2.3-.92-.92-1.84-1.85-2.74-2.8-.33-.34-.52-.94-.54-1.43-.04-1.16-.04-2.33-.03-3.54,0-.9-.72-1.63-1.62-1.63h-2.65c-.96,0-1.74-.78-1.74-1.74v-2.54c0-.96,.78-1.74,1.74-1.74,.83,0,1.66,0,2.49,0,.96,0,1.74,.78,1.74,1.74h0c0,1.44,1.74,2.16,2.76,1.15l.16-.16c1.05-1.04,.27-2.84-1.22-2.77h-.06c-.92,.04-1.69-.69-1.69-1.62Z"/>
</svg>